<svg width="137" height="38" viewBox="0 0 137 38" fill="none" xmlns="http://www.w3.org/2000/svg">
<path d="M24.6394 1.41014H134.129C135.106 1.41014 135.899 2.20241 135.899 3.17972V26.4954C135.899 27.1716 135.513 27.7886 134.906 28.0854L117.429 36.6223C117.188 36.7404 116.922 36.8018 116.653 36.8018H3.17967C2.20236 36.8018 1.4101 36.0096 1.4101 35.0323V13.3493C1.4101 12.6655 1.804 12.043 2.42188 11.7502L23.8816 1.58061C24.1185 1.46836 24.3773 1.41014 24.6394 1.41014Z" stroke="url(#paint0_linear_2_991)" stroke-width="1.17972"/>
<path d="M30.696 23V14.36H38.652V15.956H32.292V17.876H37.404V19.484H32.292V21.404H38.652V23H30.696ZM39.7395 23V22.58L42.2955 19.46L39.7395 16.46V16.04H41.4435L43.3155 18.248L45.1875 16.04H46.8915V16.46L44.3355 19.46L46.8915 22.58V23H45.1995L43.3155 20.696L41.4435 23H39.7395ZM48.1441 25.76V16.04H53.5561C53.8601 16.04 54.1361 16.116 54.3841 16.268C54.6401 16.42 54.8401 16.62 54.9841 16.868C55.1361 17.116 55.2121 17.392 55.2121 17.696V21.344C55.2121 21.648 55.1361 21.924 54.9841 22.172C54.8401 22.42 54.6401 22.62 54.3841 22.772C54.1361 22.924 53.8601 23 53.5561 23H49.7161V25.76H48.1441ZM49.8601 21.428H53.4961C53.5361 21.428 53.5681 21.416 53.5921 21.392C53.6241 21.36 53.6401 21.324 53.6401 21.284V17.756C53.6401 17.716 53.6241 17.684 53.5921 17.66C53.5681 17.628 53.5361 17.612 53.4961 17.612H49.8601C49.8201 17.612 49.7841 17.628 49.7521 17.66C49.7281 17.684 49.7161 17.716 49.7161 17.756V21.284C49.7161 21.324 49.7281 21.36 49.7521 21.392C49.7841 21.416 49.8201 21.428 49.8601 21.428ZM57.7448 23C57.4408 23 57.1648 22.924 56.9168 22.772C56.6688 22.62 56.4688 22.42 56.3168 22.172C56.1648 21.924 56.0888 21.648 56.0888 21.344V13.748H57.6728V21.284C57.6728 21.324 57.6848 21.36 57.7088 21.392C57.7408 21.416 57.7768 21.428 57.8168 21.428H59.1488V23H57.7448ZM61.6938 23C61.3898 23 61.1138 22.924 60.8658 22.772C60.6178 22.62 60.4178 22.42 60.2658 22.172C60.1138 21.924 60.0378 21.648 60.0378 21.344V17.696C60.0378 17.392 60.1138 17.116 60.2658 16.868C60.4178 16.62 60.6178 16.42 60.8658 16.268C61.1138 16.116 61.3898 16.04 61.6938 16.04H65.4498C65.7538 16.04 66.0298 16.116 66.2778 16.268C66.5338 16.42 66.7338 16.62 66.8778 16.868C67.0298 17.116 67.1058 17.392 67.1058 17.696V21.344C67.1058 21.648 67.0298 21.924 66.8778 22.172C66.7338 22.42 66.5378 22.62 66.2898 22.772C66.0418 22.924 65.7618 23 65.4498 23H61.6938ZM61.7538 21.428H65.3898C65.4298 21.428 65.4618 21.416 65.4858 21.392C65.5178 21.36 65.5338 21.324 65.5338 21.284V17.756C65.5338 17.716 65.5178 17.684 65.4858 17.66C65.4618 17.628 65.4298 17.612 65.3898 17.612H61.7538C61.7138 17.612 61.6778 17.628 61.6458 17.66C61.6218 17.684 61.6098 17.716 61.6098 17.756V21.284C61.6098 21.324 61.6218 21.36 61.6458 21.392C61.6778 21.416 61.7138 21.428 61.7538 21.428ZM68.1006 23V17.696C68.1006 17.392 68.1766 17.116 68.3286 16.868C68.4806 16.62 68.6806 16.42 68.9286 16.268C69.1846 16.116 69.4606 16.04 69.7566 16.04H73.6206V17.612H69.8166C69.7766 17.612 69.7406 17.628 69.7086 17.66C69.6846 17.684 69.6726 17.716 69.6726 17.756V23H68.1006ZM76.0961 23C75.7921 23 75.5161 22.924 75.2681 22.772C75.0201 22.62 74.8201 22.42 74.6681 22.172C74.5161 21.924 74.4401 21.648 74.4401 21.344V17.696C74.4401 17.392 74.5161 17.116 74.6681 16.868C74.8201 16.62 75.0201 16.42 75.2681 16.268C75.5161 16.116 75.7921 16.04 76.0961 16.04H79.8521C80.1561 16.04 80.4321 16.116 80.6801 16.268C80.9361 16.42 81.1361 16.62 81.2801 16.868C81.4321 17.116 81.5081 17.392 81.5081 17.696V20.312H76.0121V21.284C76.0121 21.324 76.0241 21.36 76.0481 21.392C76.0801 21.416 76.1161 21.428 76.1561 21.428H81.5081V23H76.0961ZM76.0121 18.896H79.9361V17.756C79.9361 17.716 79.9201 17.684 79.8881 17.66C79.8641 17.628 79.8321 17.612 79.7921 17.612H76.1561C76.1161 17.612 76.0801 17.628 76.0481 17.66C76.0241 17.684 76.0121 17.716 76.0121 17.756V18.896Z" fill="white"/>
<path d="M113.484 22.6455L116.433 19.6962L113.484 16.7469L114.074 15.5671L118.203 19.6962L114.074 23.8252L113.484 22.6455Z" fill="white"/>
<line x1="116.433" y1="19.6963" x2="90.4794" y2="19.6963" stroke="white" stroke-width="1.17972"/>
<defs>
<linearGradient id="paint0_linear_2_991" x1="-0.334247" y1="36.212" x2="139.901" y2="12.1231" gradientUnits="userSpaceOnUse">
<stop offset="0.473958" stop-color="#FFA6FA"/>
<stop offset="0.96875" stop-color="#3C79D5"/>
</linearGradient>
</defs>
</svg>
